# xmcd
#
# Track frame offsets:
#	150
#	16792
#	33746
#	48852
#	62341
#	77244
#	94202
#	108544
#	124989
#	139050
#	158332
#	174480
#	188950
#	204040
#
# Disc length: 2949 seconds
#
# Revision: 0
# Processed by: cddbd v1.5.2PL0 Copyright (c) Steve Scherf et al.
# Submitted via: EasyCDDAExtractor 16.0.9.1
#
DISCID=af0b830e
DTITLE=Victor and Leo - Perfil
DYEAR=2014
DGENRE=Sertanejo
TTITLE0=Victor and Leo - Tudo Com Você
TTITLE1=Victor and Leo - Na Linha do Tempo
TTITLE2=Victor and Leo - Borboletas
TTITLE3=Victor and Leo - Boa Sorte Pra Você
TTITLE4=Victor and Leo - O Tempo Não Apaga
TTITLE5=Victor and Leo - Fada (Ao Vivo)
TTITLE6=Victor and Leo - Conheço Pelo Cheiro
TTITLE7=Victor and Leo - Deus e Eu no Sertão
TTITLE8=Victor and Leo - Tem Que Ser Você
TTITLE9=Victor and Leo/Zezé Di Camargo and Luciano - Quando Você Some (Ao Vivo)
TTITLE10=Victor and Leo - Maluco (Ao Vivo)
TTITLE11=Victor and Leo - Amor.com
TTITLE12=Victor and Leo - Como Eu Amei (Bonus Track)
TTITLE13=Victor and Leo - Caminhos Diferentes (Bonus Track)
EXTD=
EXTT0=
EXTT1=
EXTT2=
EXTT3=
EXTT4=
EXTT5=
EXTT6=
EXTT7=
EXTT8=
EXTT9=
EXTT10=
EXTT11=
EXTT12=
EXTT13=
PLAYORDER=
